<?xml version="1.0" encoding="utf-8"?>
<svg version="1.1" width="18px" height="14px" xmlns="http://www.w3.org/2000/svg">
  <g transform="matrix(1 0 0 1 -488 -2020 )">
    <path d="M 2.47600446428571 11.5490056818182  C 2.53962053571429 11.6119791666667  2.57142857142857 11.686553030303  2.57142857142857 11.7727272727273  L 2.57142857142857 13.6818181818182  C 2.57142857142857 13.7679924242424  2.53962053571429 13.8425662878788  2.47600446428571 13.9055397727273  C 2.41238839285714 13.9685132575758  2.33705357142857 14  2.25 14  L 0.321428571428571 14  C 0.234375 14  0.159040178571429 13.9685132575758  0.0954241071428572 13.9055397727273  C 0.0318080357142857 13.8425662878788  0 13.7679924242424  0 13.6818181818182  L 0 11.7727272727273  C 0 11.686553030303  0.0318080357142857 11.6119791666667  0.0954241071428572 11.5490056818182  C 0.159040178571429 11.4860321969697  0.234375 11.4545454545455  0.321428571428571 11.4545454545455  L 2.25 11.4545454545455  C 2.33705357142857 11.4545454545455  2.41238839285714 11.4860321969697  2.47600446428571 11.5490056818182  Z M 2.47600446428571 7.73082386363636  C 2.53962053571429 7.79379734848485  2.57142857142857 7.86837121212121  2.57142857142857 7.95454545454545  L 2.57142857142857 9.86363636363636  C 2.57142857142857 9.9498106060606  2.53962053571429 10.024384469697  2.47600446428571 10.0873579545455  C 2.41238839285714 10.1503314393939  2.33705357142857 10.1818181818182  2.25 10.1818181818182  L 0.321428571428571 10.1818181818182  C 0.234375 10.1818181818182  0.159040178571429 10.1503314393939  0.0954241071428572 10.0873579545455  C 0.0318080357142857 10.024384469697  0 9.9498106060606  0 9.86363636363636  L 0 7.95454545454545  C 0 7.86837121212121  0.0318080357142857 7.79379734848485  0.0954241071428572 7.73082386363636  C 0.159040178571429 7.66785037878788  0.234375 7.63636363636364  0.321428571428571 7.63636363636364  L 2.25 7.63636363636364  C 2.33705357142857 7.63636363636364  2.41238839285714 7.66785037878788  2.47600446428571 7.73082386363636  Z M 2.47600446428571 3.91264204545455  C 2.53962053571429 3.97561553030303  2.57142857142857 4.05018939393939  2.57142857142857 4.13636363636364  L 2.57142857142857 6.04545454545455  C 2.57142857142857 6.13162878787879  2.53962053571429 6.20620265151515  2.47600446428571 6.26917613636364  C 2.41238839285714 6.33214962121212  2.33705357142857 6.36363636363636  2.25 6.36363636363636  L 0.321428571428571 6.36363636363636  C 0.234375 6.36363636363636  0.159040178571429 6.33214962121212  0.0954241071428572 6.26917613636364  C 0.0318080357142857 6.20620265151515  0 6.13162878787879  0 6.04545454545455  L 0 4.13636363636364  C 0 4.05018939393939  0.0318080357142857 3.97561553030303  0.0954241071428572 3.91264204545455  C 0.159040178571429 3.84966856060606  0.234375 3.81818181818182  0.321428571428571 3.81818181818182  L 2.25 3.81818181818182  C 2.33705357142857 3.81818181818182  2.41238839285714 3.84966856060606  2.47600446428571 3.91264204545455  Z M 17.9045758928571 11.5490056818182  C 17.9681919642857 11.6119791666667  18 11.686553030303  18 11.7727272727273  L 18 13.6818181818182  C 18 13.7679924242424  17.9681919642857 13.8425662878788  17.9045758928571 13.9055397727273  C 17.8409598214286 13.9685132575758  17.765625 14  17.6785714285714 14  L 4.17857142857143 14  C 4.09151785714286 14  4.01618303571429 13.9685132575758  3.95256696428571 13.9055397727273  C 3.88895089285714 13.8425662878788  3.85714285714286 13.7679924242424  3.85714285714286 13.6818181818182  L 3.85714285714286 11.7727272727273  C 3.85714285714286 11.686553030303  3.88895089285714 11.6119791666667  3.95256696428571 11.5490056818182  C 4.01618303571429 11.4860321969697  4.09151785714286 11.4545454545455  4.17857142857143 11.4545454545455  L 17.6785714285714 11.4545454545455  C 17.765625 11.4545454545455  17.8409598214286 11.4860321969697  17.9045758928571 11.5490056818182  Z M 2.47600446428571 0.0944602272727268  C 2.53962053571429 0.157433712121212  2.57142857142857 0.232007575757575  2.57142857142857 0.318181818181818  L 2.57142857142857 2.22727272727273  C 2.57142857142857 2.31344696969697  2.53962053571429 2.38802083333333  2.47600446428571 2.45099431818182  C 2.41238839285714 2.5139678030303  2.33705357142857 2.54545454545455  2.25 2.54545454545455  L 0.321428571428571 2.54545454545455  C 0.234375 2.54545454545455  0.159040178571429 2.5139678030303  0.0954241071428572 2.45099431818182  C 0.0318080357142857 2.38802083333333  0 2.31344696969697  0 2.22727272727273  L 0 0.318181818181818  C 0 0.232007575757575  0.0318080357142857 0.157433712121212  0.0954241071428572 0.0944602272727268  C 0.159040178571429 0.0314867424242402  0.234375 0  0.321428571428571 0  L 2.25 0  C 2.33705357142857 0  2.41238839285714 0.0314867424242402  2.47600446428571 0.0944602272727268  Z M 17.9045758928571 7.73082386363636  C 17.9681919642857 7.79379734848485  18 7.86837121212121  18 7.95454545454545  L 18 9.86363636363636  C 18 9.9498106060606  17.9681919642857 10.024384469697  17.9045758928571 10.0873579545455  C 17.8409598214286 10.1503314393939  17.765625 10.1818181818182  17.6785714285714 10  L 4.17857142857143 10  C 4.09151785714286 10.1818181818182  4.01618303571429 10.1503314393939  3.95256696428571 10.0873579545455  C 3.88895089285714 10.024384469697  3.85714285714286 9.9498106060606  3.85714285714286 9.86363636363636  L 3.85714285714286 7.95454545454545  C 3.85714285714286 7.86837121212121  3.88895089285714 7.79379734848485  3.95256696428571 7.73082386363636  C 4.01618303571429 7.66785037878788  4.09151785714286 7.63636363636364  4.17857142857143 7.63636363636364  L 17.6785714285714 7.63636363636364  C 17.765625 7.63636363636364  17.8409598214286 7.66785037878788  17.9045758928571 7.73082386363636  Z M 17.9045758928571 3.91264204545455  C 17.9681919642857 3.97561553030303  18 4.05018939393939  18 4.13636363636364  L 18 6.04545454545455  C 18 6.13162878787879  17.9681919642857 6.20620265151515  17.9045758928571 6.26917613636364  C 17.8409598214286 6.33214962121212  17.765625 6.36363636363636  17.6785714285714 6.36363636363636  L 4.17857142857143 6.36363636363636  C 4.09151785714286 6.36363636363636  4.01618303571429 6.33214962121212  3.95256696428571 6.26917613636364  C 3.88895089285714 6.20620265151515  3.85714285714286 6.13162878787879  3.85714285714286 6.04545454545455  L 3.85714285714286 4.13636363636364  C 3.85714285714286 4.05018939393939  3.88895089285714 3.97561553030303  3.95256696428571 3.91264204545455  C 4.01618303571429 3.84966856060606  4.09151785714286 3.81818181818182  4.17857142857143 4  L 17.6785714285714 4  C 17.765625 3.81818181818182  17.8409598214286 3.84966856060606  17.9045758928571 3.91264204545455  Z M 17.9045758928571 0.0944602272727268  C 17.9681919642857 0.157433712121212  18 0.232007575757575  18 0.318181818181818  L 18 2.22727272727273  C 18 2.31344696969697  17.9681919642857 2.38802083333333  17.9045758928571 2.45099431818182  C 17.8409598214286 2.5139678030303  17.765625 2.54545454545455  17.6785714285714 2.54545454545455  L 4.17857142857143 2.54545454545455  C 4.09151785714286 2.54545454545455  4.01618303571429 2.5139678030303  3.95256696428571 2.45099431818182  C 3.88895089285714 2.38802083333333  3.85714285714286 2.31344696969697  3.85714285714286 2.22727272727273  L 3.85714285714286 0.318181818181818  C 3.85714285714286 0.232007575757575  3.88895089285714 0.157433712121212  3.95256696428571 0.0944602272727268  C 4.01618303571429 0.0314867424242402  4.09151785714286 0  4.17857142857143 0  L 17.6785714285714 0  C 17.765625 0  17.8409598214286 0.0314867424242402  17.9045758928571 0.0944602272727268  Z " fill-rule="nonzero" fill="#d0d0d0" stroke="none" transform="matrix(1 0 0 1 488 2020 )" />
  </g>
</svg>